%TF.GenerationSoftware,KiCad,Pcbnew,8.0.1*%
%TF.CreationDate,2024-04-21T16:39:34-04:00*%
%TF.ProjectId,breadboard_pwr_jumper,62726561-6462-46f6-9172-645f7077725f,rev?*%
%TF.SameCoordinates,PX5c38660PY52dfd20*%
%TF.FileFunction,Legend,Top*%
%TF.FilePolarity,Positive*%
%FSLAX46Y46*%
G04 Gerber Fmt 4.6, Leading zero omitted, Abs format (unit mm)*
G04 Created by KiCad (PCBNEW 8.0.1) date 2024-04-21 16:39:34*
%MOMM*%
%LPD*%
G01*
G04 APERTURE LIST*
%ADD10C,0.250000*%
%ADD11C,0.120000*%
G04 APERTURE END LIST*
D10*
X3300000Y-16690000D02*
X3300000Y-17130000D01*
X5840000Y-16690000D02*
X5840000Y-17130000D01*
X3300000Y-14150000D02*
X3300000Y-14590000D01*
X5840000Y-14150000D02*
X5840000Y-14590000D01*
X47750000Y-16690000D02*
X47750000Y-17130000D01*
X50290000Y-16690000D02*
X50290000Y-17130000D01*
X47750000Y-14150000D02*
X47750000Y-14590000D01*
X50290000Y-14150000D02*
X50290000Y-14590000D01*
X25400000Y-4800000D02*
X28200000Y-7600000D01*
X28200000Y-4800000D02*
X25400000Y-7600000D01*
X31030000Y-4800000D02*
X28200000Y-4800000D01*
X23570000Y-4800000D02*
X25400000Y-4800000D01*
X46750000Y-7600000D02*
X28200000Y-7600000D01*
X5840000Y-8600000D02*
G75*
G02*
X6840000Y-7600000I1000000J0D01*
G01*
X25400000Y-7600000D02*
X6840000Y-7600000D01*
X5840000Y-11900000D02*
X5840000Y-8600000D01*
X46750000Y-7600000D02*
G75*
G02*
X47750000Y-8600000I0J-1000000D01*
G01*
X47750000Y-11900000D02*
X47750000Y-8600000D01*
X3300000Y-11900000D02*
X3300000Y-5800000D01*
X20030000Y-4800000D02*
X4300000Y-4800000D01*
X50290000Y-11900000D02*
X50290000Y-5800000D01*
X49290000Y-4800000D02*
G75*
G02*
X50290000Y-5800000I0J-1000000D01*
G01*
X34570000Y-4800000D02*
X49290000Y-4800000D01*
X3300000Y-5800000D02*
G75*
G02*
X4300000Y-4800000I1000000J0D01*
G01*
D11*
%TO.C,TP2*%
X23500000Y-4800000D02*
G75*
G02*
X20100000Y-4800000I-1700000J0D01*
G01*
X20100000Y-4800000D02*
G75*
G02*
X23500000Y-4800000I1700000J0D01*
G01*
%TO.C,C1*%
X5061252Y-19775000D02*
X4538748Y-19775000D01*
X5061252Y-21245000D02*
X4538748Y-21245000D01*
%TO.C,C2*%
X49511252Y-19775000D02*
X48988748Y-19775000D01*
X49511252Y-21245000D02*
X48988748Y-21245000D01*
%TO.C,TP1*%
X34500000Y-4800000D02*
G75*
G02*
X31100000Y-4800000I-1700000J0D01*
G01*
X31100000Y-4800000D02*
G75*
G02*
X34500000Y-4800000I1700000J0D01*
G01*
%TD*%
M02*
